<svg width="89" height="36" viewBox="0 0 89 36" fill="none" xmlns="http://www.w3.org/2000/svg">
<path fill-rule="evenodd" clip-rule="evenodd" d="M25.4458 33.8479L29.687 26.5009L14.8441 0.791504L14.8124 0.846712V0.846861L0 26.5009L4.24122 33.8478L14.8125 15.5378V15.5376L14.8441 15.4826L25.4458 33.8479ZM14.8444 35.0717L19.0842 27.7261L14.8444 20.3806V35.0717ZM14.8441 20.3805V35.0716L10.6029 27.726L14.8441 20.3805Z" fill="white"/>
<path d="M40.04 25.8638L46.4316 9.74805H49.673L55.996 25.8638H52.2068L47.3675 12.4873H48.6686L43.7608 25.8638H40.04ZM43.6695 22.942V20.0201H52.4579V22.942H43.6695Z" fill="white"/>
<path d="M62.0246 26.1149C60.8224 26.1149 59.7496 25.8714 58.8061 25.3845C57.8778 24.8823 57.1473 24.1899 56.6147 23.3072C56.082 22.4246 55.8157 21.4278 55.8157 20.3169C55.8157 19.206 56.0744 18.2168 56.5918 17.3494C57.1245 16.4668 57.8397 15.7743 58.7376 15.2722C59.6354 14.77 60.6474 14.5189 61.7735 14.5189C62.8692 14.5189 63.8356 14.7547 64.6726 15.2265C65.5095 15.6983 66.1639 16.3526 66.6357 17.1896C67.1226 18.0266 67.3661 18.9853 67.3661 20.0658C67.3661 20.2636 67.3509 20.4767 67.3205 20.705C67.3053 20.918 67.2672 21.1691 67.2063 21.4582L57.6419 21.4811V19.0842L65.7226 19.0614L64.216 20.0658C64.2008 19.4266 64.1019 18.9016 63.9193 18.4907C63.7367 18.0646 63.4627 17.7451 63.0975 17.532C62.7475 17.3037 62.3138 17.1896 61.7964 17.1896C61.2485 17.1896 60.7692 17.319 60.3583 17.5777C59.9626 17.8212 59.6506 18.1712 59.4224 18.6277C59.2093 19.0842 59.1028 19.6397 59.1028 20.2941C59.1028 20.9484 59.2169 21.5115 59.4452 21.9833C59.6887 22.4398 60.0235 22.7974 60.4496 23.0561C60.8909 23.2996 61.4083 23.4213 62.0018 23.4213C62.5497 23.4213 63.0442 23.33 63.4856 23.1474C63.9269 22.9496 64.3149 22.6605 64.6497 22.28L66.5672 24.1975C66.0193 24.8366 65.3574 25.316 64.5813 25.6356C63.8051 25.9551 62.9529 26.1149 62.0246 26.1149Z" fill="white"/>
<path d="M68.5954 25.8638V14.77H72.0879V25.8638H68.5954ZM72.0879 19.769L70.627 18.6277C70.9161 17.3342 71.4031 16.3298 72.0879 15.6146C72.7727 14.8993 73.7238 14.5417 74.9413 14.5417C75.4739 14.5417 75.938 14.6254 76.3337 14.7928C76.7446 14.945 77.1022 15.1885 77.4066 15.5232L75.3293 18.1483C75.1771 17.9809 74.9869 17.8516 74.7587 17.7603C74.5304 17.669 74.2717 17.6233 73.9825 17.6233C73.4043 17.6233 72.9401 17.8059 72.5901 18.1712C72.2553 18.5212 72.0879 19.0538 72.0879 19.769Z" fill="white"/>
<path d="M82.9098 26.1149C81.7685 26.1149 80.7337 25.8638 79.8054 25.3616C78.8923 24.8442 78.1694 24.1442 77.6368 23.2616C77.1042 22.3789 76.8379 21.3898 76.8379 20.2941C76.8379 19.1984 77.1042 18.2168 77.6368 17.3494C78.1694 16.482 78.8923 15.7972 79.8054 15.295C80.7184 14.7776 81.7533 14.5189 82.9098 14.5189C84.0664 14.5189 85.1012 14.77 86.0143 15.2722C86.9273 15.7743 87.6502 16.4668 88.1828 17.3494C88.7155 18.2168 88.9818 19.1984 88.9818 20.2941C88.9818 21.3898 88.7155 22.3789 88.1828 23.2616C87.6502 24.1442 86.9273 24.8442 86.0143 25.3616C85.1012 25.8638 84.0664 26.1149 82.9098 26.1149ZM82.9098 22.942C83.412 22.942 83.8533 22.8355 84.2338 22.6224C84.6142 22.3941 84.9034 22.0822 85.1012 21.6865C85.3142 21.2756 85.4208 20.8115 85.4208 20.2941C85.4208 19.7767 85.3142 19.3277 85.1012 18.9473C84.8881 18.5516 84.5914 18.2473 84.2109 18.0342C83.8457 17.8059 83.412 17.6918 82.9098 17.6918C82.4228 17.6918 81.9891 17.8059 81.6087 18.0342C81.2282 18.2473 80.9315 18.5516 80.7184 18.9473C80.5054 19.3429 80.3989 19.7995 80.3989 20.3169C80.3989 20.8191 80.5054 21.2756 80.7184 21.6865C80.9315 22.0822 81.2282 22.3941 81.6087 22.6224C81.9891 22.8355 82.4228 22.942 82.9098 22.942Z" fill="white"/>
</svg>
