<svg width="279" height="15" viewBox="0 0 279 15" fill="none" xmlns="http://www.w3.org/2000/svg">
<path d="M5.55117 11.5C4.85117 11.5 4.20251 11.374 3.60517 11.122C3.00784 10.87 2.48517 10.52 2.03717 10.072C1.58917 9.61467 1.23917 9.08734 0.987172 8.49001C0.744505 7.89267 0.623172 7.24867 0.623172 6.55801C0.623172 5.86734 0.749172 5.22334 1.00117 4.62601C1.25317 4.02867 1.60317 3.50601 2.05117 3.05801C2.49917 2.60067 3.02184 2.24601 3.61917 1.99401C4.22584 1.74201 4.87917 1.61601 5.57917 1.61601C6.27917 1.61601 6.92784 1.74201 7.52517 1.99401C8.13184 2.23667 8.65451 2.58201 9.09317 3.03001C9.54117 3.47801 9.88651 4.00067 10.1292 4.59801C10.3812 5.18601 10.5072 5.83001 10.5072 6.53001C10.5072 7.23001 10.3812 7.88334 10.1292 8.49001C9.87717 9.08734 9.52251 9.61467 9.06517 10.072C8.61717 10.52 8.09451 10.87 7.49717 11.122C6.89984 11.374 6.25117 11.5 5.55117 11.5ZM5.55117 10.87C6.15784 10.87 6.72251 10.758 7.24517 10.534C7.76784 10.31 8.22517 10.002 8.61717 9.61001C9.00917 9.21801 9.31251 8.76067 9.52717 8.23801C9.74184 7.70601 9.84917 7.13667 9.84917 6.53001C9.84917 5.92334 9.74184 5.35867 9.52717 4.83601C9.31251 4.31334 9.01384 3.86067 8.63117 3.47801C8.24851 3.09534 7.79584 2.79667 7.27317 2.58201C6.75984 2.35801 6.19517 2.24601 5.57917 2.24601C4.96317 2.24601 4.38917 2.35801 3.85717 2.58201C3.33451 2.79667 2.88184 3.10467 2.49917 3.50601C2.11651 3.89801 1.81784 4.35534 1.60317 4.87801C1.38851 5.39134 1.28117 5.95134 1.28117 6.55801C1.28117 7.16467 1.38851 7.72934 1.60317 8.25201C1.81784 8.77467 2.11651 9.23201 2.49917 9.62401C2.88184 10.016 3.33451 10.324 3.85717 10.548C4.37984 10.7627 4.94451 10.87 5.55117 10.87ZM5.70517 9.44201C5.13584 9.44201 4.62717 9.32067 4.17917 9.07801C3.73117 8.83534 3.38117 8.49934 3.12917 8.07001C2.87717 7.63134 2.75117 7.12734 2.75117 6.55801C2.75117 5.98867 2.87717 5.48934 3.12917 5.06001C3.38117 4.62134 3.73117 4.28067 4.17917 4.03801C4.62717 3.79534 5.13584 3.67401 5.70517 3.67401C6.19984 3.67401 6.64317 3.77667 7.03517 3.98201C7.43651 4.17801 7.74917 4.45334 7.97317 4.80801L7.17517 5.38201C6.99784 5.12067 6.77851 4.92934 6.51717 4.80801C6.26517 4.68667 5.98984 4.62601 5.69117 4.62601C5.32717 4.62601 5.00517 4.71001 4.72517 4.87801C4.45451 5.03667 4.23517 5.26067 4.06717 5.55001C3.89917 5.83001 3.81517 6.16601 3.81517 6.55801C3.81517 6.95001 3.89917 7.29067 4.06717 7.58001C4.23517 7.86001 4.45451 8.08401 4.72517 8.25201C5.00517 8.41067 5.32717 8.49001 5.69117 8.49001C5.98984 8.49001 6.26517 8.42934 6.51717 8.30801C6.77851 8.18667 6.99784 7.99534 7.17517 7.73401L7.97317 8.29401C7.74917 8.64867 7.43651 8.92867 7.03517 9.13401C6.64317 9.33934 6.19984 9.44201 5.70517 9.44201ZM15.4535 11.458V10.506L19.4435 6.65601C19.7982 6.32001 20.0595 6.02601 20.2275 5.77401C20.4049 5.51267 20.5215 5.27467 20.5775 5.06001C20.6429 4.83601 20.6755 4.62134 20.6755 4.41601C20.6755 3.91201 20.4982 3.51534 20.1435 3.22601C19.7889 2.93667 19.2709 2.79201 18.5895 2.79201C18.0669 2.79201 17.5955 2.88067 17.1755 3.05801C16.7555 3.22601 16.3915 3.49201 16.0835 3.85601L15.1315 3.03001C15.5049 2.55401 16.0042 2.19001 16.6295 1.93801C17.2642 1.67667 17.9595 1.54601 18.7155 1.54601C19.3969 1.54601 19.9895 1.65801 20.4935 1.88201C20.9975 2.09667 21.3849 2.40934 21.6555 2.82001C21.9355 3.23067 22.0755 3.71601 22.0755 4.27601C22.0755 4.59334 22.0335 4.90601 21.9495 5.21401C21.8655 5.52201 21.7069 5.84867 21.4735 6.19401C21.2402 6.53934 20.9042 6.92667 20.4655 7.35601L16.9095 10.786L16.5735 10.24H22.4955V11.458H15.4535ZM27.6369 11.57C26.8716 11.57 26.1856 11.374 25.5789 10.982C24.9816 10.59 24.5056 10.0207 24.1509 9.27401C23.8056 8.52734 23.6329 7.62201 23.6329 6.55801C23.6329 5.49401 23.8056 4.58867 24.1509 3.84201C24.5056 3.09534 24.9816 2.52601 25.5789 2.13401C26.1856 1.74201 26.8716 1.54601 27.6369 1.54601C28.3929 1.54601 29.0743 1.74201 29.6809 2.13401C30.2876 2.52601 30.7636 3.09534 31.1089 3.84201C31.4543 4.58867 31.6269 5.49401 31.6269 6.55801C31.6269 7.62201 31.4543 8.52734 31.1089 9.27401C30.7636 10.0207 30.2876 10.59 29.6809 10.982C29.0743 11.374 28.3929 11.57 27.6369 11.57ZM27.6369 10.324C28.1503 10.324 28.5983 10.184 28.9809 9.90401C29.3729 9.62401 29.6763 9.20401 29.8909 8.64401C30.1149 8.08401 30.2269 7.38867 30.2269 6.55801C30.2269 5.72734 30.1149 5.03201 29.8909 4.47201C29.6763 3.91201 29.3729 3.49201 28.9809 3.21201C28.5983 2.93201 28.1503 2.79201 27.6369 2.79201C27.1236 2.79201 26.6709 2.93201 26.2789 3.21201C25.8869 3.49201 25.5789 3.91201 25.3549 4.47201C25.1403 5.03201 25.0329 5.72734 25.0329 6.55801C25.0329 7.38867 25.1403 8.08401 25.3549 8.64401C25.5789 9.20401 25.8869 9.62401 26.2789 9.90401C26.6709 10.184 27.1236 10.324 27.6369 10.324ZM32.8168 11.458V10.506L36.8068 6.65601C37.1615 6.32001 37.4228 6.02601 37.5908 5.77401C37.7682 5.51267 37.8848 5.27467 37.9408 5.06001C38.0062 4.83601 38.0388 4.62134 38.0388 4.41601C38.0388 3.91201 37.8615 3.51534 37.5068 3.22601C37.1522 2.93667 36.6342 2.79201 35.9528 2.79201C35.4302 2.79201 34.9588 2.88067 34.5388 3.05801C34.1188 3.22601 33.7548 3.49201 33.4468 3.85601L32.4948 3.03001C32.8682 2.55401 33.3675 2.19001 33.9928 1.93801C34.6275 1.67667 35.3228 1.54601 36.0788 1.54601C36.7602 1.54601 37.3528 1.65801 37.8568 1.88201C38.3608 2.09667 38.7482 2.40934 39.0188 2.82001C39.2988 3.23067 39.4388 3.71601 39.4388 4.27601C39.4388 4.59334 39.3968 4.90601 39.3128 5.21401C39.2288 5.52201 39.0702 5.84867 38.8368 6.19401C38.6035 6.53934 38.2675 6.92667 37.8288 7.35601L34.2728 10.786L33.9368 10.24H39.8588V11.458H32.8168ZM40.5965 9.05001V8.07001L45.6085 1.65801H47.1205L42.1505 8.07001L41.4365 7.84601H49.2625V9.05001H40.5965ZM46.0425 11.458V9.05001L46.0845 7.84601V5.71801H47.4005V11.458H46.0425ZM57.5155 11.57C56.7688 11.57 56.0548 11.458 55.3735 11.234C54.6921 11.0007 54.1555 10.702 53.7635 10.338L54.2815 9.24601C54.6548 9.57267 55.1308 9.84334 55.7095 10.058C56.2881 10.2727 56.8901 10.38 57.5155 10.38C58.0848 10.38 58.5468 10.3147 58.9015 10.184C59.2561 10.0533 59.5175 9.87601 59.6855 9.65201C59.8535 9.41867 59.9375 9.15734 59.9375 8.86801C59.9375 8.53201 59.8255 8.26134 59.6015 8.05601C59.3868 7.85067 59.1021 7.68734 58.7475 7.56601C58.4021 7.43534 58.0195 7.32334 57.5995 7.23001C57.1795 7.13667 56.7548 7.02934 56.3255 6.90801C55.9055 6.77734 55.5181 6.61401 55.1635 6.41801C54.8181 6.22201 54.5381 5.96067 54.3235 5.63401C54.1088 5.29801 54.0015 4.86867 54.0015 4.34601C54.0015 3.84201 54.1321 3.38001 54.3935 2.96001C54.6641 2.53067 55.0748 2.19001 55.6255 1.93801C56.1855 1.67667 56.8948 1.54601 57.7535 1.54601C58.3228 1.54601 58.8875 1.62067 59.4475 1.77001C60.0075 1.91934 60.4928 2.13401 60.9035 2.41401L60.4415 3.53401C60.0215 3.25401 59.5781 3.05334 59.1115 2.93201C58.6448 2.80134 58.1921 2.73601 57.7535 2.73601C57.2028 2.73601 56.7501 2.80601 56.3955 2.94601C56.0408 3.08601 55.7795 3.27267 55.6115 3.50601C55.4528 3.73934 55.3735 4.00067 55.3735 4.29001C55.3735 4.63534 55.4808 4.91067 55.6955 5.11601C55.9195 5.32134 56.2041 5.48467 56.5495 5.60601C56.9041 5.72734 57.2915 5.83934 57.7115 5.94201C58.1315 6.03534 58.5515 6.14267 58.9715 6.26401C59.4008 6.38534 59.7881 6.54401 60.1335 6.74001C60.4881 6.93601 60.7728 7.19734 60.9875 7.52401C61.2021 7.85067 61.3095 8.27067 61.3095 8.78401C61.3095 9.27867 61.1741 9.74067 60.9035 10.17C60.6328 10.59 60.2128 10.9307 59.6435 11.192C59.0835 11.444 58.3741 11.57 57.5155 11.57ZM65.7068 11.542C64.9601 11.542 64.3814 11.3413 63.9708 10.94C63.5601 10.5387 63.3548 9.96467 63.3548 9.21801V2.41401H64.6988V9.16201C64.6988 9.56334 64.7968 9.87134 64.9928 10.086C65.1981 10.3007 65.4874 10.408 65.8608 10.408C66.2808 10.408 66.6308 10.2913 66.9108 10.058L67.3308 11.024C67.1254 11.2013 66.8781 11.332 66.5888 11.416C66.3088 11.5 66.0148 11.542 65.7068 11.542ZM62.0948 5.14401V4.03801H66.8268V5.14401H62.0948ZM73.5616 11.458V9.89001L73.4916 9.59601V6.92201C73.4916 6.35267 73.3236 5.91401 72.9876 5.60601C72.661 5.28867 72.1663 5.13001 71.5036 5.13001C71.065 5.13001 70.6356 5.20467 70.2156 5.35401C69.7956 5.49401 69.441 5.68534 69.1516 5.92801L68.5916 4.92001C68.9743 4.61201 69.4316 4.37867 69.9636 4.22001C70.505 4.05201 71.0696 3.96801 71.6576 3.96801C72.675 3.96801 73.459 4.21534 74.0096 4.71001C74.5603 5.20467 74.8356 5.96067 74.8356 6.97801V11.458H73.5616ZM71.1256 11.542C70.575 11.542 70.0896 11.4487 69.6696 11.262C69.259 11.0753 68.9416 10.8187 68.7176 10.492C68.4936 10.156 68.3816 9.77801 68.3816 9.35801C68.3816 8.95667 68.475 8.59267 68.6616 8.26601C68.8576 7.93934 69.1703 7.67801 69.5996 7.48201C70.0383 7.28601 70.6263 7.18801 71.3636 7.18801H73.7156V8.15401H71.4196C70.7476 8.15401 70.295 8.26601 70.0616 8.49001C69.8283 8.71401 69.7116 8.98467 69.7116 9.30201C69.7116 9.66601 69.8563 9.96001 70.1456 10.184C70.435 10.3987 70.8363 10.506 71.3496 10.506C71.8536 10.506 72.2923 10.394 72.6656 10.17C73.0483 9.94601 73.3236 9.61934 73.4916 9.19001L73.7576 10.114C73.5803 10.5527 73.2676 10.9027 72.8196 11.164C72.3716 11.416 71.807 11.542 71.1256 11.542ZM80.5568 11.542C79.8008 11.542 79.1242 11.3787 78.5268 11.052C77.9388 10.7253 77.4768 10.2773 77.1408 9.70801C76.8048 9.13867 76.6368 8.48534 76.6368 7.74801C76.6368 7.01067 76.8048 6.35734 77.1408 5.78801C77.4768 5.21867 77.9388 4.77534 78.5268 4.45801C79.1242 4.13134 79.8008 3.96801 80.5568 3.96801C81.2288 3.96801 81.8262 4.10334 82.3488 4.37401C82.8808 4.63534 83.2915 5.02734 83.5808 5.55001L82.5588 6.20801C82.3162 5.84401 82.0175 5.57801 81.6628 5.41001C81.3175 5.23267 80.9442 5.14401 80.5428 5.14401C80.0575 5.14401 79.6235 5.25134 79.2408 5.46601C78.8582 5.68067 78.5548 5.98401 78.3308 6.37601C78.1068 6.75867 77.9948 7.21601 77.9948 7.74801C77.9948 8.28001 78.1068 8.74201 78.3308 9.13401C78.5548 9.52601 78.8582 9.82934 79.2408 10.044C79.6235 10.2587 80.0575 10.366 80.5428 10.366C80.9442 10.366 81.3175 10.282 81.6628 10.114C82.0175 9.93667 82.3162 9.66601 82.5588 9.30201L83.5808 9.94601C83.2915 10.4593 82.8808 10.856 82.3488 11.136C81.8262 11.4067 81.2288 11.542 80.5568 11.542ZM89.1872 3.96801C89.7938 3.96801 90.3258 4.08467 90.7832 4.31801C91.2498 4.55134 91.6138 4.90601 91.8752 5.38201C92.1365 5.85801 92.2672 6.46001 92.2672 7.18801V11.458H90.9232V7.34201C90.9232 6.62334 90.7458 6.08201 90.3912 5.71801C90.0458 5.35401 89.5558 5.17201 88.9212 5.17201C88.4452 5.17201 88.0298 5.26534 87.6752 5.45201C87.3205 5.63867 87.0452 5.91401 86.8492 6.27801C86.6625 6.64201 86.5692 7.09467 86.5692 7.63601V11.458H85.2252V1.07001H86.5692V6.04001L86.3032 5.50801C86.5458 5.02267 86.9192 4.64467 87.4232 4.37401C87.9272 4.10334 88.5152 3.96801 89.1872 3.96801ZM98.0585 11.542C97.2651 11.542 96.5651 11.3787 95.9585 11.052C95.3611 10.7253 94.8945 10.2773 94.5585 9.70801C94.2318 9.13867 94.0685 8.48534 94.0685 7.74801C94.0685 7.01067 94.2271 6.35734 94.5445 5.78801C94.8711 5.21867 95.3145 4.77534 95.8745 4.45801C96.4438 4.13134 97.0831 3.96801 97.7925 3.96801C98.5111 3.96801 99.1458 4.12667 99.6965 4.44401C100.247 4.76134 100.676 5.20934 100.984 5.78801C101.302 6.35734 101.46 7.02467 101.46 7.79001C101.46 7.84601 101.456 7.91134 101.446 7.98601C101.446 8.06067 101.442 8.13067 101.432 8.19601H95.1185V7.23001H100.732L100.186 7.56601C100.196 7.09001 100.098 6.66534 99.8925 6.29201C99.6871 5.91867 99.4025 5.62934 99.0385 5.42401C98.6838 5.20934 98.2685 5.10201 97.7925 5.10201C97.3258 5.10201 96.9105 5.20934 96.5465 5.42401C96.1825 5.62934 95.8978 5.92334 95.6925 6.30601C95.4871 6.67934 95.3845 7.10867 95.3845 7.59401V7.81801C95.3845 8.31267 95.4965 8.75601 95.7205 9.14801C95.9538 9.53067 96.2758 9.82934 96.6865 10.044C97.0971 10.2587 97.5685 10.366 98.1005 10.366C98.5391 10.366 98.9358 10.2913 99.2905 10.142C99.6545 9.99267 99.9718 9.76867 100.242 9.47001L100.984 10.338C100.648 10.73 100.228 11.0287 99.7245 11.234C99.2298 11.4393 98.6745 11.542 98.0585 11.542ZM103.523 11.458V1.65801H104.671L111.153 9.70801H110.551V1.65801H111.951V11.458H110.803L104.321 3.40801H104.923V11.458H103.523ZM117.866 11.542C117.119 11.542 116.457 11.3787 115.878 11.052C115.299 10.7253 114.842 10.2773 114.506 9.70801C114.17 9.12934 114.002 8.47601 114.002 7.74801C114.002 7.01067 114.17 6.35734 114.506 5.78801C114.842 5.21867 115.299 4.77534 115.878 4.45801C116.457 4.13134 117.119 3.96801 117.866 3.96801C118.603 3.96801 119.261 4.13134 119.84 4.45801C120.428 4.77534 120.885 5.21867 121.212 5.78801C121.548 6.34801 121.716 7.00134 121.716 7.74801C121.716 8.48534 121.548 9.13867 121.212 9.70801C120.885 10.2773 120.428 10.7253 119.84 11.052C119.261 11.3787 118.603 11.542 117.866 11.542ZM117.866 10.366C118.342 10.366 118.767 10.2587 119.14 10.044C119.523 9.82934 119.821 9.52601 120.036 9.13401C120.251 8.73267 120.358 8.27067 120.358 7.74801C120.358 7.21601 120.251 6.75867 120.036 6.37601C119.821 5.98401 119.523 5.68067 119.14 5.46601C118.767 5.25134 118.342 5.14401 117.866 5.14401C117.39 5.14401 116.965 5.25134 116.592 5.46601C116.219 5.68067 115.92 5.98401 115.696 6.37601C115.472 6.75867 115.36 7.21601 115.36 7.74801C115.36 8.27067 115.472 8.73267 115.696 9.13401C115.92 9.52601 116.219 9.82934 116.592 10.044C116.965 10.2587 117.39 10.366 117.866 10.366ZM126.641 11.542C125.922 11.542 125.278 11.3833 124.709 11.066C124.149 10.7487 123.705 10.3053 123.379 9.73601C123.052 9.16667 122.889 8.50401 122.889 7.74801C122.889 6.99201 123.052 6.33401 123.379 5.77401C123.705 5.20467 124.149 4.76134 124.709 4.44401C125.278 4.12667 125.922 3.96801 126.641 3.96801C127.266 3.96801 127.831 4.10801 128.335 4.38801C128.839 4.66801 129.24 5.08801 129.539 5.64801C129.847 6.20801 130.001 6.90801 130.001 7.74801C130.001 8.58801 129.851 9.28801 129.553 9.84801C129.263 10.408 128.867 10.8327 128.363 11.122C127.859 11.402 127.285 11.542 126.641 11.542ZM126.753 10.366C127.219 10.366 127.639 10.2587 128.013 10.044C128.395 9.82934 128.694 9.52601 128.909 9.13401C129.133 8.73267 129.245 8.27067 129.245 7.74801C129.245 7.21601 129.133 6.75867 128.909 6.37601C128.694 5.98401 128.395 5.68067 128.013 5.46601C127.639 5.25134 127.219 5.14401 126.753 5.14401C126.277 5.14401 125.852 5.25134 125.479 5.46601C125.105 5.68067 124.807 5.98401 124.583 6.37601C124.359 6.75867 124.247 7.21601 124.247 7.74801C124.247 8.27067 124.359 8.73267 124.583 9.13401C124.807 9.52601 125.105 9.82934 125.479 10.044C125.852 10.2587 126.277 10.366 126.753 10.366ZM129.287 11.458V9.45601L129.371 7.73401L129.231 6.01201V1.07001H130.575V11.458H129.287ZM136.422 11.542C135.628 11.542 134.928 11.3787 134.322 11.052C133.724 10.7253 133.258 10.2773 132.922 9.70801C132.595 9.13867 132.432 8.48534 132.432 7.74801C132.432 7.01067 132.59 6.35734 132.908 5.78801C133.234 5.21867 133.678 4.77534 134.238 4.45801C134.807 4.13134 135.446 3.96801 136.156 3.96801C136.874 3.96801 137.509 4.12667 138.06 4.44401C138.61 4.76134 139.04 5.20934 139.348 5.78801C139.665 6.35734 139.824 7.02467 139.824 7.79001C139.824 7.84601 139.819 7.91134 139.81 7.98601C139.81 8.06067 139.805 8.13067 139.796 8.19601H133.482V7.23001H139.096L138.55 7.56601C138.559 7.09001 138.461 6.66534 138.256 6.29201C138.05 5.91867 137.766 5.62934 137.402 5.42401C137.047 5.20934 136.632 5.10201 136.156 5.10201C135.689 5.10201 135.274 5.20934 134.91 5.42401C134.546 5.62934 134.261 5.92334 134.056 6.30601C133.85 6.67934 133.748 7.10867 133.748 7.59401V7.81801C133.748 8.31267 133.86 8.75601 134.084 9.14801C134.317 9.53067 134.639 9.82934 135.05 10.044C135.46 10.2587 135.932 10.366 136.464 10.366C136.902 10.366 137.299 10.2913 137.654 10.142C138.018 9.99267 138.335 9.76867 138.606 9.47001L139.348 10.338C139.012 10.73 138.592 11.0287 138.088 11.234C137.593 11.4393 137.038 11.542 136.422 11.542ZM142.012 11.542C141.751 11.542 141.527 11.4533 141.34 11.276C141.153 11.0893 141.06 10.856 141.06 10.576C141.06 10.296 141.153 10.0673 141.34 9.89001C141.527 9.71267 141.751 9.62401 142.012 9.62401C142.264 9.62401 142.479 9.71267 142.656 9.89001C142.843 10.0673 142.936 10.296 142.936 10.576C142.936 10.856 142.843 11.0893 142.656 11.276C142.479 11.4533 142.264 11.542 142.012 11.542ZM147.334 11.458L151.772 1.65801H153.158L157.61 11.458H156.14L152.178 2.44201H152.738L148.776 11.458H147.334ZM149.224 9.00801L149.602 7.88801H155.118L155.524 9.00801H149.224ZM158.876 11.458V1.07001H160.22V11.458H158.876ZM162.786 11.458V1.07001H164.13V11.458H162.786ZM170.456 11.458V4.03801H171.744V6.05401L171.618 5.55001C171.823 5.03667 172.168 4.64467 172.654 4.37401C173.139 4.10334 173.736 3.96801 174.446 3.96801V5.27001C174.39 5.26067 174.334 5.25601 174.278 5.25601C174.231 5.25601 174.184 5.25601 174.138 5.25601C173.419 5.25601 172.85 5.47067 172.43 5.90001C172.01 6.32934 171.8 6.95001 171.8 7.76201V11.458H170.456ZM176.102 11.458V4.03801H177.446V11.458H176.102ZM176.774 2.61001C176.513 2.61001 176.293 2.52601 176.116 2.35801C175.948 2.19001 175.864 1.98467 175.864 1.74201C175.864 1.49001 175.948 1.28001 176.116 1.11201C176.293 0.944007 176.513 0.860007 176.774 0.860007C177.035 0.860007 177.25 0.944007 177.418 1.11201C177.595 1.27067 177.684 1.47134 177.684 1.71401C177.684 1.96601 177.6 2.18067 177.432 2.35801C177.264 2.52601 177.045 2.61001 176.774 2.61001ZM183.26 14.258C182.579 14.258 181.916 14.16 181.272 13.964C180.638 13.7773 180.12 13.5067 179.718 13.152L180.362 12.116C180.708 12.4147 181.132 12.648 181.636 12.816C182.14 12.9933 182.668 13.082 183.218 13.082C184.096 13.082 184.74 12.8767 185.15 12.466C185.561 12.0553 185.766 11.43 185.766 10.59V9.02201L185.906 7.55201L185.836 6.06801V4.03801H187.11V10.45C187.11 11.7567 186.784 12.718 186.13 13.334C185.477 13.95 184.52 14.258 183.26 14.258ZM183.092 11.15C182.374 11.15 181.73 11.0007 181.16 10.702C180.6 10.394 180.152 9.96934 179.816 9.42801C179.49 8.88667 179.326 8.26134 179.326 7.55201C179.326 6.83334 179.49 6.20801 179.816 5.67601C180.152 5.13467 180.6 4.71467 181.16 4.41601C181.73 4.11734 182.374 3.96801 183.092 3.96801C183.727 3.96801 184.306 4.09867 184.828 4.36001C185.351 4.61201 185.766 5.00401 186.074 5.53601C186.392 6.06801 186.55 6.74001 186.55 7.55201C186.55 8.35467 186.392 9.02201 186.074 9.55401C185.766 10.086 185.351 10.4873 184.828 10.758C184.306 11.0193 183.727 11.15 183.092 11.15ZM183.246 9.97401C183.741 9.97401 184.18 9.87134 184.562 9.66601C184.945 9.46067 185.244 9.17601 185.458 8.81201C185.682 8.44801 185.794 8.02801 185.794 7.55201C185.794 7.07601 185.682 6.65601 185.458 6.29201C185.244 5.92801 184.945 5.64801 184.562 5.45201C184.18 5.24667 183.741 5.14401 183.246 5.14401C182.752 5.14401 182.308 5.24667 181.916 5.45201C181.534 5.64801 181.23 5.92801 181.006 6.29201C180.792 6.65601 180.684 7.07601 180.684 7.55201C180.684 8.02801 180.792 8.44801 181.006 8.81201C181.23 9.17601 181.534 9.46067 181.916 9.66601C182.308 9.87134 182.752 9.97401 183.246 9.97401ZM193.64 3.96801C194.247 3.96801 194.779 4.08467 195.236 4.31801C195.703 4.55134 196.067 4.90601 196.328 5.38201C196.59 5.85801 196.72 6.46001 196.72 7.18801V11.458H195.376V7.34201C195.376 6.62334 195.199 6.08201 194.844 5.71801C194.499 5.35401 194.009 5.17201 193.374 5.17201C192.898 5.17201 192.483 5.26534 192.128 5.45201C191.774 5.63867 191.498 5.91401 191.302 6.27801C191.116 6.64201 191.022 7.09467 191.022 7.63601V11.458H189.678V1.07001H191.022V6.04001L190.756 5.50801C190.999 5.02267 191.372 4.64467 191.876 4.37401C192.38 4.10334 192.968 3.96801 193.64 3.96801ZM201.756 11.542C201.009 11.542 200.43 11.3413 200.02 10.94C199.609 10.5387 199.404 9.96467 199.404 9.21801V2.41401H200.748V9.16201C200.748 9.56334 200.846 9.87134 201.042 10.086C201.247 10.3007 201.536 10.408 201.91 10.408C202.33 10.408 202.68 10.2913 202.96 10.058L203.38 11.024C203.174 11.2013 202.927 11.332 202.638 11.416C202.358 11.5 202.064 11.542 201.756 11.542ZM198.144 5.14401V4.03801H202.876V5.14401H198.144ZM207.132 11.542C206.516 11.542 205.928 11.458 205.368 11.29C204.818 11.122 204.384 10.9167 204.066 10.674L204.626 9.61001C204.944 9.82467 205.336 10.0067 205.802 10.156C206.269 10.3053 206.745 10.38 207.23 10.38C207.856 10.38 208.304 10.2913 208.574 10.114C208.854 9.93667 208.994 9.68934 208.994 9.37201C208.994 9.13867 208.91 8.95667 208.742 8.82601C208.574 8.69534 208.35 8.59734 208.07 8.53201C207.8 8.46667 207.496 8.41067 207.16 8.36401C206.824 8.30801 206.488 8.24267 206.152 8.16801C205.816 8.08401 205.508 7.97201 205.228 7.83201C204.948 7.68267 204.724 7.48201 204.556 7.23001C204.388 6.96867 204.304 6.62334 204.304 6.19401C204.304 5.74601 204.43 5.35401 204.682 5.01801C204.934 4.68201 205.289 4.42534 205.746 4.24801C206.213 4.06134 206.764 3.96801 207.398 3.96801C207.884 3.96801 208.374 4.02867 208.868 4.15001C209.372 4.26201 209.783 4.42534 210.1 4.64001L209.526 5.70401C209.19 5.48001 208.84 5.32601 208.476 5.24201C208.112 5.15801 207.748 5.11601 207.384 5.11601C206.796 5.11601 206.358 5.21401 206.068 5.41001C205.779 5.59667 205.634 5.83934 205.634 6.13801C205.634 6.39001 205.718 6.58601 205.886 6.72601C206.064 6.85667 206.288 6.95934 206.558 7.03401C206.838 7.10867 207.146 7.17401 207.482 7.23001C207.818 7.27667 208.154 7.34201 208.49 7.42601C208.826 7.50067 209.13 7.60801 209.4 7.74801C209.68 7.88801 209.904 8.08401 210.072 8.33601C210.25 8.58801 210.338 8.92401 210.338 9.34401C210.338 9.79201 210.208 10.1793 209.946 10.506C209.685 10.8327 209.316 11.0893 208.84 11.276C208.364 11.4533 207.795 11.542 207.132 11.542ZM215.778 11.458V4.03801H217.066V6.05401L216.94 5.55001C217.145 5.03667 217.491 4.64467 217.976 4.37401C218.461 4.10334 219.059 3.96801 219.768 3.96801V5.27001C219.712 5.26067 219.656 5.25601 219.6 5.25601C219.553 5.25601 219.507 5.25601 219.46 5.25601C218.741 5.25601 218.172 5.47067 217.752 5.90001C217.332 6.32934 217.122 6.95001 217.122 7.76201V11.458H215.778ZM224.66 11.542C223.867 11.542 223.167 11.3787 222.56 11.052C221.963 10.7253 221.496 10.2773 221.16 9.70801C220.833 9.13867 220.67 8.48534 220.67 7.74801C220.67 7.01067 220.829 6.35734 221.146 5.78801C221.473 5.21867 221.916 4.77534 222.476 4.45801C223.045 4.13134 223.685 3.96801 224.394 3.96801C225.113 3.96801 225.747 4.12667 226.298 4.44401C226.849 4.76134 227.278 5.20934 227.586 5.78801C227.903 6.35734 228.062 7.02467 228.062 7.79001C228.062 7.84601 228.057 7.91134 228.048 7.98601C228.048 8.06067 228.043 8.13067 228.034 8.19601H221.72V7.23001H227.334L226.788 7.56601C226.797 7.09001 226.699 6.66534 226.494 6.29201C226.289 5.91867 226.004 5.62934 225.64 5.42401C225.285 5.20934 224.87 5.10201 224.394 5.10201C223.927 5.10201 223.512 5.20934 223.148 5.42401C222.784 5.62934 222.499 5.92334 222.294 6.30601C222.089 6.67934 221.986 7.10867 221.986 7.59401V7.81801C221.986 8.31267 222.098 8.75601 222.322 9.14801C222.555 9.53067 222.877 9.82934 223.288 10.044C223.699 10.2587 224.17 10.366 224.702 10.366C225.141 10.366 225.537 10.2913 225.892 10.142C226.256 9.99267 226.573 9.76867 226.844 9.47001L227.586 10.338C227.25 10.73 226.83 11.0287 226.326 11.234C225.831 11.4393 225.276 11.542 224.66 11.542ZM232.056 11.542C231.44 11.542 230.852 11.458 230.292 11.29C229.742 11.122 229.308 10.9167 228.99 10.674L229.55 9.61001C229.868 9.82467 230.26 10.0067 230.726 10.156C231.193 10.3053 231.669 10.38 232.154 10.38C232.78 10.38 233.228 10.2913 233.498 10.114C233.778 9.93667 233.918 9.68934 233.918 9.37201C233.918 9.13867 233.834 8.95667 233.666 8.82601C233.498 8.69534 233.274 8.59734 232.994 8.53201C232.724 8.46667 232.42 8.41067 232.084 8.36401C231.748 8.30801 231.412 8.24267 231.076 8.16801C230.74 8.08401 230.432 7.97201 230.152 7.83201C229.872 7.68267 229.648 7.48201 229.48 7.23001C229.312 6.96867 229.228 6.62334 229.228 6.19401C229.228 5.74601 229.354 5.35401 229.606 5.01801C229.858 4.68201 230.213 4.42534 230.67 4.24801C231.137 4.06134 231.688 3.96801 232.322 3.96801C232.808 3.96801 233.298 4.02867 233.792 4.15001C234.296 4.26201 234.707 4.42534 235.024 4.64001L234.45 5.70401C234.114 5.48001 233.764 5.32601 233.4 5.24201C233.036 5.15801 232.672 5.11601 232.308 5.11601C231.72 5.11601 231.282 5.21401 230.992 5.41001C230.703 5.59667 230.558 5.83934 230.558 6.13801C230.558 6.39001 230.642 6.58601 230.81 6.72601C230.988 6.85667 231.212 6.95934 231.482 7.03401C231.762 7.10867 232.07 7.17401 232.406 7.23001C232.742 7.27667 233.078 7.34201 233.414 7.42601C233.75 7.50067 234.054 7.60801 234.324 7.74801C234.604 7.88801 234.828 8.08401 234.996 8.33601C235.174 8.58801 235.262 8.92401 235.262 9.34401C235.262 9.79201 235.132 10.1793 234.87 10.506C234.609 10.8327 234.24 11.0893 233.764 11.276C233.288 11.4533 232.719 11.542 232.056 11.542ZM240.246 11.542C239.453 11.542 238.753 11.3787 238.146 11.052C237.549 10.7253 237.082 10.2773 236.746 9.70801C236.419 9.13867 236.256 8.48534 236.256 7.74801C236.256 7.01067 236.415 6.35734 236.732 5.78801C237.059 5.21867 237.502 4.77534 238.062 4.45801C238.631 4.13134 239.271 3.96801 239.98 3.96801C240.699 3.96801 241.333 4.12667 241.884 4.44401C242.435 4.76134 242.864 5.20934 243.172 5.78801C243.489 6.35734 243.648 7.02467 243.648 7.79001C243.648 7.84601 243.643 7.91134 243.634 7.98601C243.634 8.06067 243.629 8.13067 243.62 8.19601H237.306V7.23001H242.92L242.374 7.56601C242.383 7.09001 242.285 6.66534 242.08 6.29201C241.875 5.91867 241.59 5.62934 241.226 5.42401C240.871 5.20934 240.456 5.10201 239.98 5.10201C239.513 5.10201 239.098 5.20934 238.734 5.42401C238.37 5.62934 238.085 5.92334 237.88 6.30601C237.675 6.67934 237.572 7.10867 237.572 7.59401V7.81801C237.572 8.31267 237.684 8.75601 237.908 9.14801C238.141 9.53067 238.463 9.82934 238.874 10.044C239.285 10.2587 239.756 10.366 240.288 10.366C240.727 10.366 241.123 10.2913 241.478 10.142C241.842 9.99267 242.159 9.76867 242.43 9.47001L243.172 10.338C242.836 10.73 242.416 11.0287 241.912 11.234C241.417 11.4393 240.862 11.542 240.246 11.542ZM245.514 11.458V4.03801H246.802V6.05401L246.676 5.55001C246.882 5.03667 247.227 4.64467 247.712 4.37401C248.198 4.10334 248.795 3.96801 249.504 3.96801V5.27001C249.448 5.26067 249.392 5.25601 249.336 5.25601C249.29 5.25601 249.243 5.25601 249.196 5.25601C248.478 5.25601 247.908 5.47067 247.488 5.90001C247.068 6.32934 246.858 6.95001 246.858 7.76201V11.458H245.514ZM253.408 11.458L250.159 4.03801H251.56L254.444 10.758H253.772L256.712 4.03801H258.028L254.78 11.458H253.408ZM262.381 11.542C261.587 11.542 260.887 11.3787 260.281 11.052C259.683 10.7253 259.217 10.2773 258.881 9.70801C258.554 9.13867 258.391 8.48534 258.391 7.74801C258.391 7.01067 258.549 6.35734 258.867 5.78801C259.193 5.21867 259.637 4.77534 260.197 4.45801C260.766 4.13134 261.405 3.96801 262.115 3.96801C262.833 3.96801 263.468 4.12667 264.019 4.44401C264.569 4.76134 264.999 5.20934 265.307 5.78801C265.624 6.35734 265.783 7.02467 265.783 7.79001C265.783 7.84601 265.778 7.91134 265.769 7.98601C265.769 8.06067 265.764 8.13067 265.755 8.19601H259.441V7.23001H265.055L264.509 7.56601C264.518 7.09001 264.42 6.66534 264.215 6.29201C264.009 5.91867 263.725 5.62934 263.361 5.42401C263.006 5.20934 262.591 5.10201 262.115 5.10201C261.648 5.10201 261.233 5.20934 260.869 5.42401C260.505 5.62934 260.22 5.92334 260.015 6.30601C259.809 6.67934 259.707 7.10867 259.707 7.59401V7.81801C259.707 8.31267 259.819 8.75601 260.043 9.14801C260.276 9.53067 260.598 9.82934 261.009 10.044C261.419 10.2587 261.891 10.366 262.423 10.366C262.861 10.366 263.258 10.2913 263.613 10.142C263.977 9.99267 264.294 9.76867 264.565 9.47001L265.307 10.338C264.971 10.73 264.551 11.0287 264.047 11.234C263.552 11.4393 262.997 11.542 262.381 11.542ZM270.715 11.542C269.996 11.542 269.352 11.3833 268.783 11.066C268.223 10.7487 267.78 10.3053 267.453 9.73601C267.126 9.16667 266.963 8.50401 266.963 7.74801C266.963 6.99201 267.126 6.33401 267.453 5.77401C267.78 5.20467 268.223 4.76134 268.783 4.44401C269.352 4.12667 269.996 3.96801 270.715 3.96801C271.34 3.96801 271.905 4.10801 272.409 4.38801C272.913 4.66801 273.314 5.08801 273.613 5.64801C273.921 6.20801 274.075 6.90801 274.075 7.74801C274.075 8.58801 273.926 9.28801 273.627 9.84801C273.338 10.408 272.941 10.8327 272.437 11.122C271.933 11.402 271.359 11.542 270.715 11.542ZM270.827 10.366C271.294 10.366 271.714 10.2587 272.087 10.044C272.47 9.82934 272.768 9.52601 272.983 9.13401C273.207 8.73267 273.319 8.27067 273.319 7.74801C273.319 7.21601 273.207 6.75867 272.983 6.37601C272.768 5.98401 272.47 5.68067 272.087 5.46601C271.714 5.25134 271.294 5.14401 270.827 5.14401C270.351 5.14401 269.926 5.25134 269.553 5.46601C269.18 5.68067 268.881 5.98401 268.657 6.37601C268.433 6.75867 268.321 7.21601 268.321 7.74801C268.321 8.27067 268.433 8.73267 268.657 9.13401C268.881 9.52601 269.18 9.82934 269.553 10.044C269.926 10.2587 270.351 10.366 270.827 10.366ZM273.361 11.458V9.45601L273.445 7.73401L273.305 6.01201V1.07001H274.649V11.458H273.361ZM277.514 11.542C277.253 11.542 277.029 11.4533 276.842 11.276C276.655 11.0893 276.562 10.856 276.562 10.576C276.562 10.296 276.655 10.0673 276.842 9.89001C277.029 9.71267 277.253 9.62401 277.514 9.62401C277.766 9.62401 277.981 9.71267 278.158 9.89001C278.345 10.0673 278.438 10.296 278.438 10.576C278.438 10.856 278.345 11.0893 278.158 11.276C277.981 11.4533 277.766 11.542 277.514 11.542Z" fill="#121212"/>
</svg>
