<svg width="20" height="20" viewBox="0 0 20 20" fill="none" xmlns="http://www.w3.org/2000/svg">
<path d="M15.0335 11.2917C14.6835 11.6334 14.4835 12.125 14.5335 12.65C14.6085 13.55 15.4335 14.2084 16.3335 14.2084H17.9168V15.2C17.9168 16.925 16.5085 18.3334 14.7835 18.3334H5.21683C3.49183 18.3334 2.0835 16.925 2.0835 15.2V9.59172C2.0835 7.86672 3.49183 6.45837 5.21683 6.45837H14.7835C16.5085 6.45837 17.9168 7.86672 17.9168 9.59172V10.7917H16.2335C15.7668 10.7917 15.3418 10.975 15.0335 11.2917Z" stroke="black" stroke-width="1.5" stroke-linecap="round" stroke-linejoin="round"/>
<path d="M2.0835 10.3417V6.53342C2.0835 5.54175 2.69183 4.65838 3.61683 4.30838L10.2335 1.80838C11.2668 1.41672 12.3752 2.18341 12.3752 3.29174V6.4584" stroke="black" stroke-width="1.5" stroke-linecap="round" stroke-linejoin="round"/>
<path d="M18.7992 11.6418V13.3586C18.7992 13.8169 18.4325 14.1918 17.9658 14.2085H16.3325C15.4325 14.2085 14.6075 13.5502 14.5325 12.6502C14.4825 12.1252 14.6825 11.6335 15.0325 11.2918C15.3408 10.9752 15.7658 10.7919 16.2325 10.7919H17.9658C18.4325 10.8085 18.7992 11.1835 18.7992 11.6418Z" stroke="black" stroke-width="1.5" stroke-linecap="round" stroke-linejoin="round"/>
<path d="M5.8335 10H11.6668" stroke="black" stroke-width="1.5" stroke-linecap="round" stroke-linejoin="round"/>
</svg>
