<svg width="63" height="21" viewBox="0 0 63 21" fill="none" xmlns="http://www.w3.org/2000/svg">
<path d="M31.8955 -4.06239e-05L31.1219 -4.05901e-05C30.95 1.12306 30.7266 2.18313 30.463 3.16298C30.0332 4.73303 29.5003 6.0796 28.87 7.16259C28.1652 8.37738 27.3057 9.29993 26.3086 9.90732C25.2371 10.5663 24.0281 10.8356 22.7331 10.7038C21.2547 10.5434 19.8795 10.1537 18.6188 9.54632C17.4614 8.98477 16.3383 8.4003 15.2782 7.79864C14.3499 7.27147 13.3873 6.87036 12.4246 6.60105C10.1268 5.93636 8.23016 5.93062 6.60281 6.58958C4.95254 7.25428 3.66326 8.36019 2.66622 9.96462C1.6348 11.6149 0.975841 13.6147 0.717987 15.9125L0.717987 15.9354L0.706531 16.0385C0.569008 17.3507 0.50024 18.4796 0.50024 19.4021C0.50024 20.3247 0.50024 19.574 0.50024 19.66C0.50597 20.0668 0.523167 20.4622 0.546085 20.8461L5.89227 20.8461C5.89227 20.7773 5.89227 20.7086 5.89227 20.6398C5.89227 19.9923 5.93238 19.3563 5.99541 18.7489C6.20169 16.8121 7.08986 15.2249 8.62553 14.033C9.77155 13.1448 11.8 12.3254 14.963 13.5058C16.0002 13.8726 17.0774 14.3653 18.1432 14.9613C19.083 15.4942 20.0342 15.9812 20.9796 16.411C21.8105 16.7892 22.6872 17.0298 23.5926 17.1273C25.4491 17.3278 26.8587 16.7949 28.0219 15.4598C28.784 14.5888 29.3972 13.4256 29.8441 11.9988L31.5001 6.72138L33.1561 11.9988C33.6031 13.4256 34.2162 14.5888 34.9783 15.4541C36.1472 16.7949 37.5568 17.3278 39.4134 17.1273C40.3188 17.0298 41.1955 16.7892 42.0206 16.411C42.9661 15.9812 43.923 15.4942 44.8513 14.967C45.9228 14.3653 47.0001 13.8726 48.0659 13.5001C51.2002 12.3312 53.2287 13.1506 54.3747 14.0387C55.9161 15.2363 56.7985 16.8236 57.0048 18.7546C57.0736 19.3677 57.108 20.0038 57.108 20.6627C57.108 20.7258 57.108 20.7888 57.108 20.8633L62.4542 20.8633C62.4771 20.4794 62.4943 20.084 62.5 19.6714C62.5 19.5969 62.5 19.511 62.5 19.425C62.5 18.5025 62.4255 17.3679 62.2937 16.0557L62.2937 15.9812C62.0301 13.6663 61.3712 11.6493 60.334 9.98754C59.3313 8.38311 58.0477 7.28293 56.3974 6.6125C54.7701 5.95354 52.8734 5.95927 50.5928 6.61823C49.613 6.89328 48.6503 7.30012 47.7221 7.82155C46.6677 8.41749 45.5389 9.00769 44.3871 9.56351C43.1208 10.1709 41.7398 10.5605 40.2729 10.721C38.9665 10.8585 37.7631 10.5892 36.6859 9.93024C35.6946 9.32285 34.835 8.39457 34.1302 7.17406C33.4999 6.0968 32.9613 4.75595 32.5373 3.1859C32.2737 2.21179 32.0502 1.15171 31.8783 0.0228819L31.8955 -4.06239e-05Z" fill="black"/>
</svg>
