<svg width="175" height="31" viewBox="0 0 175 31" fill="none" xmlns="http://www.w3.org/2000/svg">
<g clip-path="url(#clip0_7_63)">
<path d="M34.0099 24.564L28.4394 30.4882C28.318 30.6174 28.1714 30.7203 28.0085 30.7905C27.8457 30.8606 27.6702 30.8965 27.4929 30.896H1.07791C0.951957 30.896 0.828501 30.8594 0.723335 30.7909C0.644372 30.7403 0.577559 30.673 0.527677 30.5936C0.477795 30.5142 0.446078 30.4248 0.434797 30.3317C0.423516 30.2386 0.43295 30.1442 0.462423 30.0552C0.491897 29.9662 0.54068 29.8849 0.605283 29.8169L6.17535 23.8931C6.29677 23.7639 6.44342 23.661 6.60623 23.5908C6.76905 23.5206 6.94454 23.4845 7.12185 23.4849H33.5369C33.6628 23.4849 33.7863 23.5215 33.8914 23.5901C33.9704 23.6406 34.0373 23.7079 34.0872 23.7873C34.1371 23.8666 34.1689 23.9561 34.1802 24.0491C34.1915 24.1422 34.1821 24.2366 34.1527 24.3256C34.1233 24.4146 34.0745 24.4961 34.0099 24.564ZM28.4394 12.6341C28.318 12.5049 28.1714 12.402 28.0085 12.3319C27.8457 12.2617 27.6702 12.2258 27.4929 12.2263H1.07791C0.951957 12.2263 0.828501 12.2629 0.723335 12.3311C0.617753 12.3996 0.535033 12.4973 0.484736 12.6121C0.434448 12.7266 0.419063 12.8535 0.440504 12.9767C0.461946 13.1 0.519263 13.2142 0.605283 13.305L6.17535 19.2292C6.29679 19.3584 6.44346 19.4612 6.60627 19.5314C6.76908 19.6015 6.94457 19.6375 7.12185 19.637H33.5369C33.6628 19.637 33.7859 19.6004 33.891 19.5318C33.9962 19.4632 34.0789 19.366 34.1292 19.2517C34.1795 19.1373 34.195 19.0106 34.1738 18.8874C34.1526 18.7643 34.0956 18.6501 34.0099 18.5591L28.4394 12.6341ZM1.07957 8.37881H27.4946C27.6718 8.37868 27.8472 8.34242 28.0099 8.27223C28.1726 8.20205 28.3194 8.09942 28.4411 7.97061L34.0116 2.04597C34.0972 1.9549 34.1543 1.84073 34.1757 1.71757C34.1971 1.59441 34.182 1.46767 34.1321 1.35303C34.0818 1.23831 33.9991 1.14104 33.8935 1.07245C33.7879 1.00377 33.6646 0.967241 33.5385 0.967285H7.12351C6.94639 0.967413 6.77114 1.00364 6.60848 1.07375C6.44582 1.14386 6.29915 1.24638 6.17743 1.37506L0.606945 7.29929C0.521389 7.39032 0.464377 7.50442 0.442953 7.6275C0.42153 7.75057 0.436634 7.87723 0.486399 7.99181C0.53628 8.10612 0.619 8.2038 0.724166 8.27239C0.828917 8.34098 0.951957 8.37797 1.07791 8.37839H1.07999L1.07957 8.37881Z" fill="white"/>
<mask id="mask0_7_63" style="mask-type:luminance" maskUnits="userSpaceOnUse" x="44" y="0" width="131" height="31">
<path d="M175 0.967285H44.4775V30.896H175V0.967285Z" fill="white"/>
</mask>
<g mask="url(#mask0_7_63)">
<path d="M46.9953 8.00885H53.7737V10.2543H44.4775V12.6528H53.6628C54.3278 12.6519 54.9655 12.3873 55.4358 11.9171C55.9061 11.4468 56.1708 10.8093 56.1718 10.1442V8.11984C56.1712 7.45454 55.9067 6.81663 55.4363 6.34615C54.9659 5.87567 54.3281 5.61106 53.6628 5.6104H46.8839V3.36574H56.1709V0.967286H46.9936C46.3283 0.967836 45.6904 1.23234 45.2199 1.70275C44.7495 2.17315 44.4848 2.81101 44.4842 3.47631V5.50066C44.4853 6.16608 44.7503 6.80389 45.221 7.27418C45.6918 7.74447 46.3299 8.00841 46.9953 8.00885ZM67.9508 0.967286H60.807C60.1417 0.967727 59.5038 1.23221 59.0333 1.70265C58.5629 2.17309 58.2984 2.81101 58.298 3.47631V10.1438C58.2986 10.809 58.5632 11.4468 59.0336 11.9172C59.504 12.3876 60.1418 12.6521 60.807 12.6528H67.9508C68.616 12.6521 69.2538 12.3876 69.7242 11.9172C70.1946 11.4468 70.4592 10.809 70.4598 10.1438V3.47631C70.4592 2.81108 70.1946 2.17328 69.7242 1.70289C69.2538 1.2325 68.616 0.967946 67.9508 0.967286ZM68.0614 3.36574V10.2543H60.6956V3.36574L68.0614 3.36657V3.36574ZM74.1764 12.6536H84.0683V10.2543H75.0194V0.967286H72.6209V11.0973C72.6216 11.5097 72.7857 11.9051 73.0772 12.1968C73.3688 12.4885 73.764 12.6527 74.1764 12.6536ZM96.3228 0.967286H88.2263C87.6874 0.967946 87.1708 1.18231 86.7897 1.56337C86.4087 1.94442 86.1943 2.46105 86.1936 2.99995V12.6536H88.5921V8.84353H95.9579V12.6536H98.3568V3.00036C98.3558 2.46132 98.1411 1.94464 97.7599 1.56356C97.3787 1.18247 96.8619 0.968055 96.3228 0.967286ZM95.9571 3.36574V6.44508H88.5913V3.36574H95.9571ZM110.245 10.2543H109.8L105.299 1.7924C105.167 1.543 104.969 1.33439 104.727 1.18901C104.485 1.04363 104.208 0.966973 103.926 0.967286H102.038C101.626 0.967836 101.23 1.13202 100.938 1.42384C100.646 1.71566 100.482 2.1113 100.482 2.524V12.654H102.88V3.36616H103.421L107.919 11.8281C108.052 12.0779 108.249 12.2868 108.492 12.4324C108.734 12.5779 109.011 12.6546 109.294 12.654H111.088C111.501 12.6536 111.896 12.4895 112.188 12.1978C112.48 11.906 112.644 11.5104 112.645 11.0977V0.967286H110.246L110.245 10.2543ZM125.096 0.967286H116.999C116.46 0.967946 115.944 1.18231 115.562 1.56337C115.181 1.94442 114.967 2.46105 114.966 2.99995V12.6536H117.365V8.84353H124.731V12.6536H127.129V3.00036C127.129 2.46122 126.914 1.94429 126.533 1.5631C126.152 1.18191 125.635 0.967616 125.096 0.967286ZM124.729 3.36574V6.44508H117.363V3.36574H124.729ZM44.4775 30.8952H46.876V26.2513H55.9257V23.8528H46.876V21.6073H55.9257V19.2089H44.4775V30.8952ZM67.6977 19.2089H60.5538C59.8884 19.2094 59.2503 19.474 58.7797 19.9446C58.3091 20.4152 58.0445 21.0532 58.044 21.7187V28.3862C58.0442 29.0515 58.3086 29.6896 58.7791 30.1601C59.2496 30.6306 59.8876 30.895 60.553 30.8952H67.6973C68.3623 30.8942 68.9998 30.6296 69.47 30.1593C69.9403 29.6891 70.2049 29.0516 70.2059 28.3866V21.7187C70.2054 21.0535 69.9411 20.4156 69.4708 19.945C69.0006 19.4745 68.3629 19.2097 67.6977 19.2089ZM67.8078 21.6073V28.4967H60.442V21.6073H67.8078ZM82.0951 26.4815C82.0945 27.0159 81.882 27.5282 81.5041 27.906C81.1262 28.2839 80.6138 28.4963 80.0794 28.4967H76.744C76.21 28.4956 75.6981 28.283 75.3204 27.9053C74.9428 27.5276 74.7302 27.0156 74.7293 26.4815V19.2084H72.3312V26.9571C72.3322 28.0009 72.7472 29.0017 73.4852 29.7399C74.2232 30.4781 75.2239 30.8935 76.2677 30.8948H80.5541C81.5984 30.8939 82.5997 30.4788 83.3383 29.7406C84.0769 29.0024 84.4925 28.0013 84.4939 26.9571V19.2089H82.0951V26.4815ZM96.3835 28.4967H95.9375L91.4374 20.0344C91.3052 19.7847 91.1074 19.5758 90.8652 19.4303C90.623 19.2849 90.3457 19.2083 90.0632 19.2089H88.1747C87.7621 19.2093 87.3664 19.3735 87.0746 19.6653C86.7828 19.9572 86.6188 20.3529 86.6185 20.7656V30.8956H89.0165V21.6077H89.5577L94.0557 30.0697C94.1881 30.3194 94.386 30.5283 94.6282 30.6739C94.8704 30.8195 95.1478 30.8963 95.4304 30.896H97.224C97.6368 30.8958 98.0326 30.7318 98.3246 30.44C98.6165 30.1482 98.7807 29.7525 98.7812 29.3397V19.2089H96.3827L96.3835 28.4967ZM109.13 19.2089H100.906V30.8952H109.13C110.174 30.8948 111.176 30.4798 111.914 29.7415C112.653 29.0032 113.069 28.0019 113.07 26.9575V23.1478C113.069 22.1033 112.654 21.1017 111.915 20.3633C111.176 19.6248 110.174 19.2093 109.13 19.2089ZM103.304 21.6073H108.654C109.189 21.6081 109.701 21.8207 110.079 22.1987C110.457 22.5766 110.669 23.0889 110.67 23.6233V26.4815C110.669 27.0158 110.456 27.5278 110.078 27.9056C109.701 28.2833 109.189 28.4959 108.654 28.4967H103.304V21.6073ZM125.325 19.2089H117.227C116.688 19.2092 116.171 19.4234 115.79 19.8046C115.409 20.1857 115.195 20.7025 115.195 21.2415V30.8952H117.593V27.0851H124.959V30.8952H127.357V21.2423C127.357 20.7034 127.143 20.1865 126.762 19.8053C126.381 19.424 125.864 19.2095 125.325 19.2089ZM124.96 21.6073V24.6866H117.594V21.6073H124.96ZM129.483 21.6073H134.127V30.8952H136.526V21.6073H141.17V19.2089H129.483V21.6073ZM145.812 19.2089H143.414V30.8952H145.812V19.2089ZM157.848 19.2089H150.704C150.038 19.2094 149.4 19.474 148.93 19.9446C148.459 20.4152 148.194 21.0532 148.194 21.7187V28.3862C148.194 29.0515 148.459 29.6896 148.929 30.1601C149.4 30.6306 150.038 30.895 150.703 30.8952H157.847C158.512 30.8942 159.15 30.6296 159.62 30.1593C160.09 29.6891 160.355 29.0516 160.356 28.3866V21.7187C160.355 21.0535 160.091 20.4156 159.621 19.945C159.151 19.4745 158.513 19.2097 157.848 19.2089ZM157.958 21.6073V28.4967H150.592V21.6073H157.958ZM172.245 19.2089V28.4959H171.799L167.299 20.0348C167.167 19.785 166.969 19.576 166.727 19.4305C166.485 19.2849 166.208 19.2083 165.925 19.2089H164.037C163.624 19.2091 163.228 19.3732 162.936 19.6651C162.644 19.957 162.48 20.3528 162.48 20.7656V30.8956H164.878V21.6077H165.42L169.918 30.0697C170.05 30.3193 170.248 30.5281 170.49 30.6737C170.732 30.8193 171.01 30.8961 171.292 30.896H173.086C173.499 30.8955 173.895 30.7313 174.186 30.4396C174.478 30.1479 174.642 29.7524 174.643 29.3397V19.2089H172.245Z" fill="white"/>
</g>
</g>
<defs>
<clipPath id="clip0_7_63">
<rect width="175" height="29.9287" fill="white" transform="translate(0 0.967285)"/>
</clipPath>
</defs>
</svg>
