<svg width="58" height="41" viewBox="0 0 58 41" fill="none" xmlns="http://www.w3.org/2000/svg">
<path d="M55.7354 20.9816V21.4458C55.0588 21.552 54.4255 21.6818 53.8394 21.8391C52.8953 22.0948 52.0889 22.4174 51.4399 22.795C50.7122 23.2198 50.1575 23.7351 49.7917 24.333C49.3944 24.9782 49.2331 25.7019 49.3157 26.4769C49.4141 27.3619 49.6462 28.1919 50.0081 28.9472C50.3424 29.6434 50.6964 30.3161 51.0583 30.9533C51.373 31.5119 51.6169 32.0862 51.7782 32.6684C52.1794 34.0451 52.1794 35.1859 51.7861 36.1614C51.3848 37.1527 50.724 37.9237 49.7602 38.5255C48.769 39.1431 47.5692 39.5404 46.1925 39.6938H46.1767L46.1177 39.7017C45.331 39.7843 44.6505 39.8276 44.0998 39.8276C43.5491 39.8276 43.9936 39.8276 43.9464 39.8276C43.7025 39.8236 43.4665 39.8118 43.2344 39.8V36.5902C43.2776 36.5902 43.317 36.5902 43.3603 36.5902C43.7497 36.5902 44.1312 36.5666 44.4971 36.5273C45.6575 36.4014 46.6094 35.8703 47.3293 34.9499C47.8642 34.2615 48.352 33.046 47.6479 31.1461C47.4276 30.5245 47.1326 29.8755 46.7746 29.2383C46.456 28.6718 46.1649 28.1054 45.9053 27.5389C45.6772 27.0394 45.5355 26.5123 45.4765 25.9694C45.3546 24.8523 45.6732 24.0105 46.4757 23.3103C46.9988 22.8501 47.699 22.4842 48.5526 22.2167L51.7192 21.2215L48.5526 20.2263C47.699 19.9589 46.9988 19.5891 46.4796 19.1328C45.6732 18.4287 45.3546 17.5869 45.4765 16.4697C45.5355 15.9269 45.6772 15.3998 45.9053 14.9042C46.1649 14.3338 46.456 13.7634 46.7707 13.2048C47.1326 12.5637 47.4276 11.9146 47.6518 11.2774C48.352 9.39316 47.8642 8.17767 47.3293 7.48928C46.6134 6.56488 45.6575 6.03385 44.501 5.90797C44.1352 5.86864 43.7497 5.84897 43.3563 5.84503C43.317 5.84503 43.2776 5.84503 43.2383 5.84503V2.6352C43.4665 2.61947 43.7064 2.6116 43.9542 2.60767C44.0014 2.60767 44.0486 2.60767 44.1037 2.60767C44.6583 2.60767 45.3389 2.65094 46.1256 2.73354H46.1728C47.5653 2.89089 48.7729 3.28818 49.7681 3.90969C50.7318 4.51154 51.3927 5.28253 51.7939 6.2738C52.1873 7.24934 52.1873 8.39008 51.79 9.75898C51.6248 10.3451 51.3809 10.9233 51.0662 11.4819C50.7082 12.1152 50.3542 12.7918 50.0199 13.4841C49.654 14.2433 49.422 15.0733 49.3275 15.9544C49.2449 16.7372 49.4062 17.461 49.8035 18.1101C50.1693 18.704 50.724 19.2233 51.4556 19.6442C52.1007 20.0218 52.9071 20.3443 53.8512 20.6C54.4373 20.7574 55.0746 20.8911 55.7472 20.9973L55.7354 20.9816Z" fill="black"/>
<path d="M5.01949 19.7819C3.69386 19.7819 2.35643 19.3177 1.30615 18.3815L2.44297 17.0166C3.22969 17.6656 4.05575 18.0787 5.05882 18.0787C6.0619 18.0787 6.32151 17.764 6.32151 17.2526V17.229C6.32151 16.7412 6.02256 16.4895 4.55925 16.1158C2.79699 15.6673 1.65624 15.1756 1.65624 13.437V13.4134C1.65624 11.8242 2.93074 10.7739 4.72053 10.7739C6.51033 10.7739 7.08464 11.1752 7.97363 11.8871L6.97449 13.3386C6.19957 12.7997 5.43645 12.4772 4.69693 12.4772C3.95741 12.4772 3.57192 12.8155 3.57192 13.2403V13.2639C3.57192 13.8382 3.94561 14.027 5.46005 14.4165C7.23805 14.8806 8.23719 15.5179 8.23719 17.0441V17.0677C8.23719 18.8064 6.91156 19.7819 5.02342 19.7819H5.01949Z" fill="black"/>
<path d="M11.4352 19.7702C10.2708 19.7702 9.4841 19.306 9.4841 17.7562V14.5778H8.68164V12.9532H9.4841V11.2382H11.384V12.9532H12.9614V14.5778H11.384V17.4415C11.384 17.8781 11.5728 18.0905 11.9977 18.0905C12.4225 18.0905 12.6625 18.004 12.9378 17.8545V19.3807C12.5366 19.6168 12.0764 19.7702 11.4352 19.7702Z" fill="black"/>
<path d="M17.847 19.66V18.9362C17.3828 19.4476 16.7456 19.7859 15.8212 19.7859C14.8968 19.7859 13.52 19.0621 13.52 17.7325V17.7089C13.52 16.2456 14.6332 15.569 16.2224 15.569C17.8116 15.569 17.3868 15.6831 17.8627 15.8444V15.7303C17.8627 14.9436 17.375 14.503 16.423 14.503C15.4711 14.503 15.1839 14.6407 14.5703 14.8649L14.0943 13.4134C14.8338 13.0869 15.5576 12.8745 16.6944 12.8745C18.7714 12.8745 19.684 13.9484 19.684 15.7657V19.6561H17.847V19.66ZM17.8824 16.9576C17.5559 16.8081 17.1311 16.7059 16.6708 16.7059C15.8566 16.7059 15.357 17.0323 15.357 17.6303V17.6539C15.357 18.1652 15.7818 18.4681 16.3955 18.4681C17.2845 18.4681 17.8824 17.9803 17.8824 17.292V16.9537V16.9576Z" fill="black"/>
<path d="M24.0345 19.8094C22.0205 19.8094 20.5454 18.2596 20.5454 16.3439V16.3203C20.5454 14.4046 22.0087 12.8312 24.0621 12.8312C26.1154 12.8312 26.1154 13.256 26.7409 13.9562L25.5765 15.2071C25.1517 14.7586 24.7268 14.4676 24.0503 14.4676C23.3737 14.4676 22.4257 15.3054 22.4257 16.2928V16.3164C22.4257 17.343 23.0905 18.1691 24.125 18.1691C25.1595 18.1691 25.1989 17.8937 25.663 17.4571L26.7763 18.5821C26.1272 19.2941 25.3759 19.8094 24.0385 19.8094H24.0345Z" fill="black"/>
<path d="M31.7483 19.66V15.9191C31.7483 15.0183 31.3234 14.5541 30.5957 14.5541C29.868 14.5541 29.4077 15.0183 29.4077 15.9191V19.66H27.5078V10.53H29.4077V13.909C29.8444 13.3465 30.4069 12.8351 31.3706 12.8351C32.8103 12.8351 33.6482 13.7871 33.6482 15.3251V19.6639H31.7483V19.66Z" fill="black"/>
<path d="M41.1183 16.9693H36.453C36.6419 17.8308 37.2398 18.2832 38.0934 18.2832C38.947 18.2832 39.1948 18.0826 39.7179 17.5948L40.8076 18.5585C40.1821 19.3334 39.2813 19.8094 38.0698 19.8094C36.0558 19.8094 34.5688 18.3972 34.5688 16.3439V16.3203C34.5688 14.4046 35.9338 12.8312 37.8849 12.8312C39.836 12.8312 41.1498 14.5698 41.1498 16.4698V16.4934C41.1498 16.6822 41.138 16.7923 41.1262 16.9693H41.1183ZM37.881 14.3535C37.0942 14.3535 36.5789 14.916 36.4294 15.7814H39.2931C39.179 14.9317 38.6795 14.3535 37.881 14.3535Z" fill="black"/>
<path d="M15.8723 31.752L11.6319 26.1859V31.752H9.73193V22.9957H11.5099L15.6127 28.3887V22.9957H17.5126V31.752H15.8723Z" fill="black"/>
<path d="M22.2761 31.9013C20.1992 31.9013 18.6611 30.3633 18.6611 28.4358V28.4122C18.6611 26.4847 20.211 24.9231 22.2997 24.9231C24.3885 24.9231 25.9147 26.4611 25.9147 28.3886V28.4122C25.9147 30.3397 24.3649 31.9013 22.2761 31.9013ZM24.0384 28.4122C24.0384 27.4249 23.3264 26.5595 22.2761 26.5595C21.2258 26.5595 20.5375 27.3973 20.5375 28.3847V28.4083C20.5375 29.3956 21.2495 30.261 22.2997 30.261C23.35 30.261 24.0384 29.4232 24.0384 28.4358V28.4122Z" fill="black"/>
<path d="M31.693 31.7519V30.7881C31.2288 31.4136 30.5916 31.8777 29.6042 31.8777C28.0426 31.8777 26.5518 30.6505 26.5518 28.4122V28.3886C26.5518 26.1504 28.0151 24.9231 29.6042 24.9231C31.1934 24.9231 31.2446 25.3873 31.693 25.9222V22.6219H33.5929V31.7519H31.693ZM31.7205 28.3847C31.7205 27.2715 30.981 26.532 30.0959 26.532C29.2109 26.532 28.4556 27.2557 28.4556 28.3847V28.4083C28.4556 29.5215 29.2069 30.261 30.0959 30.261C30.9849 30.261 31.7205 29.5215 31.7205 28.4083V28.3847Z" fill="black"/>
<path d="M41.1183 29.0613H36.453C36.6419 29.9227 37.2398 30.3751 38.0934 30.3751C38.947 30.3751 39.1948 30.1745 39.7179 29.6867L40.8076 30.6504C40.1821 31.4254 39.2813 31.9013 38.0698 31.9013C36.0558 31.9013 34.5688 30.4892 34.5688 28.4358V28.4122C34.5688 26.4965 35.9338 24.9231 37.8849 24.9231C39.836 24.9231 41.1498 26.6618 41.1498 28.5617V28.5853C41.1498 28.7741 41.138 28.8842 41.1262 29.0613H41.1183ZM37.881 26.4454C37.0942 26.4454 36.5789 27.0079 36.4294 27.8733H39.2931C39.179 27.0236 38.6795 26.4454 37.881 26.4454Z" fill="black"/>
</svg>
