<svg width="97" height="67" viewBox="0 0 97 67" fill="none" xmlns="http://www.w3.org/2000/svg">
<path d="M96.2754 33.3802V34.1987C95.0824 34.3859 93.9657 34.6148 92.9322 34.8923C91.2676 35.3431 89.8457 35.9119 88.7013 36.5777C87.4181 37.3268 86.4402 38.2354 85.7951 39.2897C85.0946 40.4272 84.8102 41.7034 84.9559 43.0698C85.1293 44.6303 85.5385 46.0938 86.1766 47.4255C86.7662 48.6532 87.3904 49.8392 88.0285 50.9629C88.5834 51.9478 89.0134 52.9604 89.2978 53.9869C90.0053 56.4145 90.0053 58.4259 89.3117 60.1461C88.6042 61.8939 87.439 63.2534 85.7396 64.3146C83.9918 65.4035 81.8763 66.104 79.4487 66.3745H79.421L79.317 66.3884C77.9298 66.5341 76.7299 66.6104 75.7588 66.6104C74.7878 66.6104 75.5715 66.6104 75.4883 66.6104C75.0583 66.6034 74.6421 66.5826 74.2329 66.5618V60.9021C74.3092 60.9021 74.3786 60.9021 74.4549 60.9021C75.1415 60.9021 75.8143 60.8605 76.4593 60.7911C78.5055 60.5692 80.184 59.6328 81.4532 58.0098C82.3965 56.796 83.2566 54.6528 82.015 51.3027C81.6266 50.2068 81.1064 49.0624 80.4753 47.9388C79.9135 46.94 79.4002 45.9412 78.9424 44.9425C78.5401 44.0616 78.2904 43.1322 78.1864 42.175C77.9714 40.2052 78.5332 38.7209 79.9481 37.4863C80.8706 36.6748 82.1052 36.0298 83.6103 35.5581L89.1938 33.8033L83.6103 32.0485C82.1052 31.5769 80.8706 30.9249 79.9551 30.1203C78.5332 28.8788 77.9714 27.3945 78.1864 25.4247C78.2904 24.4675 78.5401 23.5381 78.9424 22.6642C79.4002 21.6585 79.9135 20.6528 80.4683 19.6679C81.1064 18.5373 81.6266 17.3929 82.022 16.2693C83.2566 12.9469 82.3965 10.8037 81.4532 9.58993C80.1909 7.95998 78.5055 7.02363 76.4663 6.80168C75.8212 6.73232 75.1415 6.69764 74.4479 6.69071C74.3786 6.69071 74.3092 6.69071 74.2398 6.69071V1.03097C74.6421 1.00323 75.0652 0.989358 75.5022 0.982422C75.5854 0.982422 75.6686 0.982422 75.7658 0.982422C76.7437 0.982422 77.9436 1.05872 79.3308 1.20437H79.4141C81.8694 1.48181 83.9987 2.18234 85.7535 3.27822C87.4528 4.33942 88.6181 5.69887 89.3255 7.44673C90.0191 9.16684 90.0191 11.1783 89.3186 13.592C89.0273 14.6254 88.5973 15.645 88.0424 16.6299C87.4112 17.7466 86.787 18.9396 86.1974 20.1603C85.5524 21.499 85.1432 22.9624 84.9767 24.5161C84.831 25.8963 85.1154 27.1726 85.8159 28.317C86.461 29.3643 87.439 30.2799 88.729 31.022C89.8665 31.6879 91.2884 32.2566 92.953 32.7075C93.9865 32.9849 95.1101 33.2207 96.2962 33.408L96.2754 33.3802Z" fill="white"/>
<path d="M6.85027 31.2648C4.51285 31.2648 2.15463 30.4464 0.302734 28.7956L2.30722 26.3888C3.69441 27.5333 5.15096 28.2615 6.91963 28.2615C8.6883 28.2615 9.14607 27.7067 9.14607 26.805V26.7634C9.14607 25.9033 8.61893 25.4594 6.03876 24.8005C2.93146 24.0098 0.920033 23.1428 0.920033 20.0771V20.0355C0.920033 17.2334 3.16728 15.3815 6.32314 15.3815C9.47899 15.3815 10.4916 16.0889 12.0592 17.3443L10.2974 19.9037C8.93105 18.9535 7.58548 18.3847 6.28152 18.3847C4.97756 18.3847 4.29784 18.9812 4.29784 19.7303V19.7719C4.29784 20.7846 4.95675 21.1175 7.62709 21.8042C10.7621 22.6226 12.5239 23.7462 12.5239 26.4374V26.479C12.5239 29.5447 10.1865 31.2648 6.85721 31.2648H6.85027Z" fill="white"/>
<path d="M18.1628 31.244C16.1097 31.244 14.7225 30.4256 14.7225 27.6928V22.0886H13.3076V19.224H14.7225V16.2H18.0726V19.224H20.8539V22.0886H18.0726V27.1379C18.0726 27.9078 18.4055 28.2824 19.1546 28.2824C19.9037 28.2824 20.3268 28.1298 20.8123 27.8662V30.5574C20.1048 30.9735 19.2933 31.244 18.1628 31.244Z" fill="white"/>
<path d="M29.4684 31.0498V29.7736C28.65 30.6753 27.5263 31.2718 25.8964 31.2718C24.2664 31.2718 21.8389 29.9956 21.8389 27.6512V27.6096C21.8389 25.0294 23.8017 23.8365 26.6039 23.8365C29.406 23.8365 28.6569 24.0376 29.4962 24.322V24.1208C29.4962 22.7336 28.6361 21.9568 26.9576 21.9568C25.2791 21.9568 24.7728 22.1996 23.6908 22.5949L22.8515 20.0356C24.1555 19.4599 25.4317 19.0853 27.4362 19.0853C31.0984 19.0853 32.7075 20.9788 32.7075 24.1832V31.0429H29.4684V31.0498ZM29.5308 26.2848C28.9551 26.0213 28.2061 25.8409 27.3946 25.8409C25.9588 25.8409 25.078 26.4166 25.078 27.4709V27.5125C25.078 28.4142 25.827 28.9482 26.909 28.9482C28.4766 28.9482 29.5308 28.0882 29.5308 26.8744V26.2779V26.2848Z" fill="white"/>
<path d="M40.3787 31.3133C36.8275 31.3133 34.2266 28.5805 34.2266 25.2027V25.1611C34.2266 21.7833 36.8067 19.0089 40.4273 19.0089C44.0479 19.0089 44.0479 19.758 45.1507 20.9926L43.0976 23.1982C42.3486 22.4075 41.5995 21.8943 40.4065 21.8943C39.2135 21.8943 37.5419 23.3716 37.5419 25.1125V25.1542C37.5419 26.9644 38.7141 28.421 40.5383 28.421C42.3624 28.421 42.4318 27.9355 43.2502 27.1656L45.2131 29.1493C44.0687 30.4047 42.7439 31.3133 40.3857 31.3133H40.3787Z" fill="white"/>
<path d="M53.9799 31.0497V24.4537C53.9799 22.8653 53.2308 22.0469 51.9477 22.0469C50.6645 22.0469 49.853 22.8653 49.853 24.4537V31.0497H46.5029V14.9514H49.853V20.9094C50.6229 19.9176 51.6147 19.0159 53.314 19.0159C55.8526 19.0159 57.3299 20.6944 57.3299 23.4063V31.0567H53.9799V31.0497Z" fill="white"/>
<path d="M70.5015 26.3055H62.2754C62.6084 27.8245 63.6626 28.6221 65.1677 28.6221C66.6728 28.6221 67.1098 28.2684 68.0323 27.4083L69.9535 29.1076C68.8507 30.474 67.2624 31.3133 65.1261 31.3133C61.5749 31.3133 58.9531 28.8233 58.9531 25.2027V25.1611C58.9531 21.7833 61.3599 19.0089 64.8001 19.0089C68.2404 19.0089 70.557 22.0746 70.557 25.4247V25.4663C70.557 25.7992 70.5362 25.9934 70.5153 26.3055H70.5015ZM64.7932 21.6931C63.406 21.6931 62.4974 22.685 62.2338 24.2109H67.2832C67.0821 22.7127 66.2012 21.6931 64.7932 21.6931Z" fill="white"/>
<path d="M25.9867 52.3709L18.5097 42.5566V52.3709H15.1597V36.9315H18.2947L25.5289 46.4407V36.9315H28.879V52.3709H25.9867Z" fill="white"/>
<path d="M37.2784 52.6343C33.6163 52.6343 30.9043 49.9224 30.9043 46.5238V46.4821C30.9043 43.0835 33.6371 40.33 37.32 40.33C41.003 40.33 43.6942 43.0419 43.6942 46.4405V46.4821C43.6942 49.8808 40.9614 52.6343 37.2784 52.6343ZM40.3857 46.4821C40.3857 44.7412 39.1303 43.2153 37.2784 43.2153C35.4265 43.2153 34.2127 44.6927 34.2127 46.4336V46.4752C34.2127 48.2161 35.4682 49.742 37.32 49.742C39.1719 49.742 40.3857 48.2647 40.3857 46.5238V46.4821Z" fill="white"/>
<path d="M53.8827 52.3709V50.6716C53.0642 51.7744 51.9406 52.5929 50.1997 52.5929C47.4461 52.5929 44.8174 50.4289 44.8174 46.4823V46.4407C44.8174 42.4941 47.3976 40.3301 50.1997 40.3301C53.0018 40.3301 53.092 41.1485 53.8827 42.0918V36.2726H57.2327V52.3709H53.8827ZM53.9312 46.4337C53.9312 44.4709 52.6273 43.1669 51.0667 43.1669C49.5061 43.1669 48.1744 44.4431 48.1744 46.4337V46.4754C48.1744 48.4382 49.4991 49.7422 51.0667 49.7422C52.6342 49.7422 53.9312 48.4382 53.9312 46.4754V46.4337Z" fill="white"/>
<path d="M70.5015 47.6266H62.2754C62.6084 49.1455 63.6626 49.9432 65.1677 49.9432C66.6728 49.9432 67.1098 49.5894 68.0323 48.7294L69.9535 50.4287C68.8507 51.7951 67.2624 52.6343 65.1261 52.6343C61.5749 52.6343 58.9531 50.1443 58.9531 46.5238V46.4821C58.9531 43.1043 61.3599 40.33 64.8001 40.33C68.2404 40.33 70.557 43.3956 70.557 46.7457V46.7873C70.557 47.1202 70.5362 47.3145 70.5153 47.6266H70.5015ZM64.7932 43.0142C63.406 43.0142 62.4974 44.006 62.2338 45.5319H67.2832C67.0821 44.0338 66.2012 43.0142 64.7932 43.0142Z" fill="white"/>
</svg>
