<svg width="365" height="1083" viewBox="0 0 365 1083" fill="none" xmlns="http://www.w3.org/2000/svg">
<path d="M364.8 534.3V547.8C345.2 550.8 326.7 554.7 309.6 559.3C282.2 566.8 258.7 576.1 239.8 587.1C218.6 599.4 202.5 614.4 191.9 631.8C180.4 650.5 175.7 671.6 178 694.2C180.8 720 187.6 744 198.2 766C208 786.2 218.2 805.8 228.7 824.3C237.9 840.5 244.9 857.3 249.6 874.1C261.2 914.2 261.3 947.3 249.8 975.7C238.2 1004.5 218.9 1027 190.9 1044.4C162.1 1062.4 127.2 1073.9 87.0999 1078.4H86.7L84.9 1078.6C62 1081 42.2999 1082.2 26.2 1082.2C10.1 1082.2 23.2 1082.2 21.7 1082.2C14.6 1082.1 7.69994 1081.8 0.999939 1081.4V988.1C2.19994 988.1 3.39991 988.1 4.59991 988.1C15.8999 988.1 26.9999 987.4 37.5999 986.3C71.3999 982.7 99.1 967.2 119.9 940.4C135.4 920.4 149.7 885 129.1 829.8C122.7 811.7 114.1 792.9 103.7 774.3C94.3999 757.9 85.9 741.3 78.4 724.8C71.8 710.3 67.6 695 65.9 679.2C62.4 646.8 71.6999 622.2 94.9999 601.9C110.2 588.6 130.5 577.9 155.4 570.1L247.5 541.2L155.4 512.3C130.5 504.5 110.2 493.8 95.0999 480.5C71.6999 460.1 62.4 435.5 65.9 403.1C67.6 387.3 71.8 372 78.4 357.6C85.9 341.1 94.3999 324.4 103.6 308.2C114.1 289.5 122.7 270.7 129.2 252.1C149.6 197.4 135.3 162 119.8 142C98.8999 115.1 71.1999 99.7 37.4999 96.1C26.7999 94.9 15.7 94.3 4.19995 94.3C3.09995 94.3 1.99995 94.3 0.699951 94.3V1C7.39995 0.6 14.2999 0.300012 21.4999 0.200012C22.7999 0.200012 24.2999 0.200012 25.7999 0.200012C41.8999 0.200012 61.6999 1.49999 84.5999 3.79999H85.9C126.3 8.39999 161.5 19.9 190.5 38C218.5 55.5 237.7 77.9 249.4 106.7C260.9 135.1 260.8 168.2 249.3 208C244.5 225.1 237.4 241.9 228.3 258.1C217.9 276.5 207.6 296.2 197.9 316.3C187.3 338.4 180.5 362.5 177.7 388.1C175.3 410.9 180 431.9 191.5 450.7C202.1 468 218.3 483 239.6 495.3C258.4 506.3 281.8 515.7 309.2 523.1C326.2 527.7 344.7 531.6 364.4 534.6L364.8 534.3Z" fill="black"/>
</svg>
